HIERARCHY
ROOT Hips
{
	OFFSET 0.000000 0.000000 0.000000
	CHANNELS 6 Xposition Yposition Zposition Zrotation Xrotation Yrotation
	JOINT Spine1
	{
		OFFSET 0.000000 -0.000014 83.308411
		CHANNELS 6 Xposition Yposition Zposition Zrotation Xrotation Yrotation
		JOINT Neck
		{
			OFFSET 0.000000 -0.000011 66.416405
			CHANNELS 6 Xposition Yposition Zposition Zrotation Xrotation Yrotation
			JOINT Head
			{
				OFFSET 0.000000 -5.449087 42.230404
				CHANNELS 6 Xposition Yposition Zposition Zrotation Xrotation Yrotation
				End Site
				{
					OFFSET 0.000000 -0.000009 54.490669
				}
			}
		}
		JOINT LeftShoulder
		{
			OFFSET 10.973010 1.440363 53.627693
			CHANNELS 6 Xposition Yposition Zposition Zrotation Xrotation Yrotation
			JOINT LeftArm
			{
				OFFSET 39.154800 0.000000 0.000000
				CHANNELS 6 Xposition Yposition Zposition Zrotation Xrotation Yrotation
				JOINT LeftForeArm
				{
					OFFSET 76.776299 0.000000 0.000000
					CHANNELS 6 Xposition Yposition Zposition Zrotation Xrotation Yrotation
					JOINT LeftHand
					{
						OFFSET 71.353493 0.000000 0.000000
						CHANNELS 6 Xposition Yposition Zposition Zrotation Xrotation Yrotation
						End Site
						{
							OFFSET 40.868008 0.000000 0.000000
						}
					}
				}
			}
		}
		JOINT RightShoulder
		{
			OFFSET -10.821630 1.440363 53.627693
			CHANNELS 6 Xposition Yposition Zposition Zrotation Xrotation Yrotation
			JOINT RightArm
			{
				OFFSET -39.154800 0.000000 0.000000
				CHANNELS 6 Xposition Yposition Zposition Zrotation Xrotation Yrotation
				JOINT RightForeArm
				{
					OFFSET -76.776306 0.000000 0.000000
					CHANNELS 6 Xposition Yposition Zposition Zrotation Xrotation Yrotation
					JOINT RightHand
					{
						OFFSET -71.353516 0.000000 0.000000
						CHANNELS 6 Xposition Yposition Zposition Zrotation Xrotation Yrotation
						End Site
						{
							OFFSET -40.868008 0.000000 0.000000
						}
					}
				}
			}
		}
	}
	JOINT LeftUpLeg
	{
		OFFSET 27.245401 0.000000 0.000000
		CHANNELS 6 Xposition Yposition Zposition Zrotation Xrotation Yrotation
		JOINT LeftLeg
		{
			OFFSET 0.000000 0.000019 -114.584709
			CHANNELS 6 Xposition Yposition Zposition Zrotation Xrotation Yrotation
			JOINT LeftFoot
			{
				OFFSET 0.000000 0.000020 -120.129013
				CHANNELS 6 Xposition Yposition Zposition Zrotation Xrotation Yrotation
				JOINT LeftToeBase
				{
					OFFSET 0.000000 -40.868095 -17.709503
					CHANNELS 6 Xposition Yposition Zposition Zrotation Xrotation Yrotation
					End Site
					{
						OFFSET 0.000000 -10.898136 0.000000
					}
				}
			}
		}
	}
	JOINT RightUpLeg
	{
		OFFSET -27.245401 0.000000 0.000000
		CHANNELS 6 Xposition Yposition Zposition Zrotation Xrotation Yrotation
		JOINT RightLeg
		{
			OFFSET 0.000000 0.000019 -114.584709
			CHANNELS 6 Xposition Yposition Zposition Zrotation Xrotation Yrotation
			JOINT RightFoot
			{
				OFFSET 0.000000 0.000020 -120.129013
				CHANNELS 6 Xposition Yposition Zposition Zrotation Xrotation Yrotation
				JOINT RightToeBase
				{
					OFFSET 0.000000 -40.868095 -17.709503
					CHANNELS 6 Xposition Yposition Zposition Zrotation Xrotation Yrotation
					End Site
					{
						OFFSET 0.000000 -10.898136 0.000000
					}
				}
			}
		}
	}
}
MOTION
Frames: 5
Frame Time: 0.041667
-10.104172 -5.581147 223.918869 0.502195 17.795233 -2.356183 -0.000001 -0.000006 83.308426 -4.259461 -19.793943 -8.684623 0.000004 -0.000012 66.416428 1.279993 13.486032 2.484063 0.000004 -5.449082 42.230381 1.746993 5.288080 5.717462 10.973006 1.440366 53.627659 0.709400 -8.164541 -18.298715 39.154812 -0.000010 -0.000029 -11.761395 -10.682604 4.206974 76.776321 0.000005 0.000034 2.127314 -4.450335 3.169331 71.353470 -0.000014 0.000026 18.336843 -4.875009 -2.275564 -10.821630 1.440365 53.627708 -4.643704 -1.094710 14.447187 -39.154804 -0.000001 0.000006 24.566792 18.839458 -26.725866 -76.776283 -0.000020 -0.000003 78.051529 38.184412 37.816835 -71.353508 0.000020 -0.000010 -6.521731 6.805897 32.010416 27.245401 0.000009 0.000025 17.241631 -38.298028 -14.330195 0.000003 0.000023 -114.584709 15.033426 33.966876 3.548426 0.000007 0.000021 -120.129021 17.442705 3.343606 6.407318 -0.000001 -40.868084 -17.709503 -0.000002 -0.000001 0.000000 -27.245401 0.000002 0.000006 13.169676 -25.665047 36.713650 0.000008 0.000023 -114.584717 -20.552615 30.775480 -15.453885 0.000003 0.000019 -120.128990 -26.684839 -4.183696 -12.193745 0.000001 -40.868111 -17.709505 0.000001 0.000002 0.000001 
-10.100538 -5.642341 223.937027 0.546358 17.759108 -2.341672 0.000001 0.000008 83.308388 -4.299317 -19.766363 -8.697357 0.000004 -0.000014 66.416405 1.289220 13.483829 2.488178 0.000006 -5.449092 42.230389 1.754756 5.351416 5.735391 10.973013 1.440364 53.627686 0.695265 -8.173363 -18.304729 39.154800 -0.000007 0.000066 -11.774244 -10.733469 4.239620 76.776299 -0.000003 -0.000013 2.152660 -4.429736 3.175802 71.353477 -0.000007 -0.000005 18.327016 -4.853876 -2.268269 -10.821621 1.440360 53.627712 -4.651824 -1.085284 14.452344 -39.154816 -0.000006 0.000033 24.568119 18.785764 -26.754713 -76.776276 -0.000006 -0.000014 78.115869 38.170188 37.730365 -71.353508 -0.000012 -0.000012 -6.495080 6.836989 32.065604 27.245403 0.000013 -0.000024 17.182886 -38.258072 -14.371850 0.000001 0.000024 -114.584717 15.029941 33.946238 3.550078 0.000002 0.000021 -120.128983 17.431244 3.352624 6.411147 0.000002 -40.868088 -17.709522 -0.000001 -0.000000 0.000001 -27.245403 0.000014 -0.000033 13.117574 -25.592422 36.663919 -0.000006 0.000014 -114.584740 -20.539832 30.737340 -15.459467 0.000006 0.000022 -120.129005 -26.710478 -4.178806 -12.214225 0.000013 -40.868088 -17.709503 -0.000003 -0.000002 -0.000000 
-10.092990 -5.666039 223.951111 0.554842 17.756926 -2.332938 0.000001 -0.000001 83.308434 -4.296799 -19.772505 -8.688684 0.000001 -0.000012 66.416443 1.295009 13.476131 2.462930 -0.000001 -5.449080 42.230415 1.762847 5.421102 5.800602 10.973007 1.440363 53.627686 0.682098 -8.177818 -18.319563 39.154789 -0.000015 -0.000010 -11.789250 -10.764889 4.278381 76.776314 -0.000016 -0.000008 2.173713 -4.398390 3.167426 71.353531 0.000016 0.000006 18.326026 -4.823091 -2.269132 -10.821640 1.440363 53.627720 -4.651357 -1.090219 14.438924 -39.154804 -0.000002 -0.000001 24.569029 18.752045 -26.785017 -76.776283 -0.000009 0.000042 78.149290 38.183903 37.676017 -71.353523 0.000017 0.000022 -6.458264 6.900354 32.013223 27.245401 0.000009 0.000011 17.261575 -38.273692 -14.324674 -0.000002 0.000017 -114.584686 14.970574 33.948523 3.537956 0.000005 0.000006 -120.128990 17.417879 3.355386 6.413151 0.000001 -40.868088 -17.709503 0.000000 -0.000001 -0.000001 -27.245399 0.000008 0.000014 13.108485 -25.586683 36.643046 0.000010 0.000019 -114.584709 -20.519135 30.732737 -15.448136 -0.000013 0.000022 -120.129021 -26.717689 -4.175366 -12.256879 0.000000 -40.868099 -17.709503 -0.000002 -0.000001 0.000000 
-10.083660 -5.691158 223.966705 0.570570 17.757363 -2.330684 0.000002 -0.000017 83.308434 -4.304609 -19.773799 -8.694885 -0.000002 -0.000021 66.416435 1.309702 13.463047 2.484872 -0.000002 -5.449068 42.230377 1.775380 5.482861 5.813825 10.973001 1.440355 53.627663 0.645627 -8.179781 -18.311184 39.154804 -0.000003 0.000054 -11.784511 -10.833859 4.297924 76.776306 0.000012 -0.000009 2.200528 -4.369452 3.189767 71.353493 0.000009 0.000041 18.306212 -4.798187 -2.289339 -10.821629 1.440355 53.627693 -4.663535 -1.091913 14.451372 -39.154808 -0.000004 0.000046 24.521603 18.654538 -26.787888 -76.776283 -0.000006 0.000071 78.296446 38.171441 37.495587 -71.353561 0.000012 0.000056 -6.462147 6.969209 32.029148 27.245401 0.000005 0.000015 17.247052 -38.268307 -14.325987 -0.000006 0.000027 -114.584740 14.969096 33.943001 3.536967 0.000000 0.000015 -120.129005 17.417824 3.359367 6.367405 0.000003 -40.868107 -17.709505 -0.000000 0.000001 -0.000000 -27.245399 -0.000001 0.000010 13.098156 -25.574491 36.628617 -0.000008 0.000023 -114.584732 -20.544466 30.723530 -15.429218 -0.000006 0.000019 -120.128990 -26.723438 -4.162076 -12.246324 0.000002 -40.868088 -17.709503 -0.000002 -0.000000 0.000000 
-10.082210 -5.723622 223.986465 0.576529 17.748375 -2.332957 -0.000001 -0.000010 83.308403 -4.288368 -19.770952 -8.681892 0.000001 -0.000014 66.416443 1.300173 13.457503 2.489628 0.000004 -5.449082 42.230434 1.767134 5.521317 5.855391 10.973006 1.440366 53.627708 0.641205 -8.175463 -18.336145 39.154789 -0.000021 -0.000040 -11.820417 -10.879354 4.350833 76.776314 -0.000003 0.000022 2.222330 -4.337105 3.206889 71.353493 -0.000009 -0.000004 18.317331 -4.766517 -2.286187 -10.821629 1.440362 53.627750 -4.691754 -1.098927 14.452171 -39.154812 -0.000003 -0.000049 24.541992 18.671087 -26.818798 -76.776299 0.000005 0.000074 78.277342 38.203820 37.527491 -71.353523 0.000009 0.000021 -6.465024 6.990566 32.014039 27.245401 0.000001 -0.000006 17.259741 -38.246577 -14.311084 -0.000006 0.000022 -114.584740 14.975460 33.920325 3.520132 0.000005 0.000009 -120.129005 17.401901 3.381422 6.381948 -0.000003 -40.868080 -17.709501 -0.000002 -0.000003 0.000000 -27.245403 0.000001 -0.000015 13.090939 -25.567695 36.616122 0.000006 0.000025 -114.584724 -20.560737 30.730199 -15.405989 -0.000001 0.000019 -120.129005 -26.731960 -4.137048 -12.208622 -0.000003 -40.868088 -17.709503 -0.000003 -0.000001 0.000001 
